<?xml version="1.0" standalone="no"?>
<!DOCTYPE svg PUBLIC "-//W3C//DTD SVG 20010904//EN"
 "http://www.w3.org/TR/2001/REC-SVG-20010904/DTD/svg10.dtd">
<svg version="1.0" xmlns="http://www.w3.org/2000/svg"
 width="916.000000pt" height="916.000000pt" viewBox="0 0 916.000000 916.000000"
 preserveAspectRatio="xMidYMid meet">
<metadata>
Created by potrace 1.14, written by Peter Selinger 2001-2017
</metadata>
<g transform="translate(0.000000,916.000000) scale(0.100000,-0.100000)"
fill="#000000" stroke="none">
<path d="M0 4580 l0 -4580 4580 0 4580 0 0 4580 0 4580 -4580 0 -4580 0 0
-4580z m4805 3757 c513 -95 979 -365 1307 -757 159 -189 279 -382 366 -585
100 -236 165 -496 177 -705 3 -58 8 -131 11 -162 3 -32 1 -58 -3 -58 -5 0 -24
30 -42 67 -18 37 -59 108 -90 159 -55 87 -59 96 -74 201 -17 121 -76 310 -139
446 -23 48 -43 86 -45 84 -2 -2 15 -43 37 -91 36 -77 55 -137 30 -95 -6 10
-21 14 -42 13 -32 -2 -52 11 -42 28 3 4 11 8 17 8 7 0 6 -4 -3 -10 -12 -8 -9
-9 10 -7 18 3 26 11 28 28 2 19 1 21 -7 9 -6 -8 -16 -15 -23 -16 -34 -3 -38
-5 -38 -24 0 -31 -17 -24 -23 10 -5 21 -12 30 -27 30 -11 0 -22 -1 -23 -2 -2
-2 -12 4 -22 12 -15 12 -17 12 -10 1 6 -11 4 -13 -9 -8 -10 4 -27 2 -38 -4
-12 -6 -23 -7 -27 -2 -3 5 -28 29 -56 53 -27 24 0 -8 60 -71 216 -223 237
-258 49 -80 -360 341 -830 589 -1289 677 -114 22 -450 25 -570 5 -194 -32
-436 -108 -613 -192 -293 -139 -586 -344 -792 -553 -140 -143 -62 -33 94 133
34 36 54 60 45 53 -9 -6 -20 -8 -24 -4 -5 4 -5 2 -2 -4 3 -6 -24 -40 -61 -77
-52 -51 -71 -64 -82 -56 -12 8 -12 9 4 7 26 -4 45 27 27 44 -12 11 -13 10 -8
-4 3 -10 2 -20 -3 -23 -6 -4 -10 8 -10 25 0 17 -4 29 -10 25 -5 -3 -7 -12 -4
-19 3 -8 1 -17 -5 -21 -7 -3 -8 0 -5 9 3 9 1 16 -5 16 -6 0 -11 -4 -11 -10 0
-5 -4 -10 -10 -10 -18 0 -11 18 10 25 26 8 26 25 0 20 -12 -2 -18 0 -15 6 4 5
10 7 15 4 5 -3 11 -1 15 5 3 5 -2 10 -12 10 -17 1 -17 1 0 14 9 7 17 17 17 21
0 5 -10 -1 -23 -13 -26 -24 -42 -19 -27 8 7 13 6 20 -5 23 -9 4 -12 1 -9 -8 3
-8 1 -22 -5 -32 -6 -10 -11 -12 -11 -5 0 6 -7 12 -16 12 -13 0 -14 -3 -5 -14
9 -10 8 -16 -4 -26 -12 -10 -15 -9 -15 6 -1 31 -14 2 -59 -133 -42 -123 -81
-295 -81 -358 0 -25 -14 -56 -51 -110 -27 -41 -70 -112 -94 -158 l-45 -82 0
98 c0 192 30 391 91 597 37 122 119 339 139 365 5 6 23 37 41 70 105 193 214
339 383 514 332 342 807 595 1221 650 44 6 94 13 110 15 62 9 383 -3 460 -17z
m-428 -1063 c-3 -3 -12 -4 -19 -1 -8 3 -5 6 6 6 11 1 17 -2 13 -5z m-240 -40
c-3 -3 -12 -4 -19 -1 -8 3 -5 6 6 6 11 1 17 -2 13 -5z m-202 -54 c-3 -5 -12
-10 -18 -10 -7 0 -6 4 3 10 19 12 23 12 15 0z m-345 -155 c0 -2 -10 -9 -22
-15 -22 -11 -22 -10 -4 4 21 17 26 19 26 11z m2530 -121 c0 -3 -6 -12 -14 -19
-12 -12 -15 -12 -20 1 -3 8 -2 12 4 9 6 -3 10 -1 10 4 0 6 5 11 10 11 6 0 10
-3 10 -6z m41 -14 c6 0 7 4 4 10 -3 6 1 7 10 4 18 -7 39 -43 31 -52 -3 -3 -6
0 -6 7 0 7 -4 9 -10 6 -6 -4 -7 1 -3 10 5 15 3 15 -15 4 -11 -7 -18 -17 -16
-21 3 -4 -5 -7 -17 -5 -13 2 -25 10 -27 16 -3 9 2 11 17 6 12 -4 21 -2 21 4 0
6 -5 11 -11 11 -5 0 -7 5 -3 12 6 9 9 9 12 0 2 -7 8 -12 13 -12z m18 -64 c7
-8 5 -12 -9 -13 -10 -1 -23 4 -29 11 -7 8 -5 12 9 13 10 1 23 -4 29 -11z
m-1461 -247 c279 -30 618 -143 877 -291 202 -116 471 -306 586 -413 47 -44 51
-50 45 -84 -6 -39 -41 -77 -82 -87 -53 -13 -94 6 -237 115 -385 292 -689 433
-1112 518 -140 28 -452 25 -604 -5 -387 -78 -687 -219 -1056 -498 -147 -111
-201 -139 -250 -130 -68 13 -113 113 -67 151 125 104 321 255 399 307 483 321
1018 470 1501 417z m-459 -1043 c26 -24 27 -60 1 -86 -20 -20 -33 -20 -570
-20 -537 0 -550 0 -570 20 -11 11 -20 28 -20 38 0 26 27 60 53 65 12 3 261 4
553 3 508 -1 533 -2 553 -20z m1630 9 c45 -23 54 -62 21 -95 -20 -20 -33 -20
-572 -20 -499 0 -553 2 -570 17 -34 31 -17 88 32 106 8 3 250 6 538 6 441 1
527 -1 551 -14z m475 -225 c13 -33 16 -81 16 -259 0 -245 -6 -282 -65 -367
-32 -45 -98 -104 -118 -104 -4 0 -7 145 -7 323 l0 323 60 43 c33 23 66 51 73
62 17 27 23 24 41 -21z m-3597 -25 l70 -54 8 -321 c4 -177 5 -324 2 -326 -10
-10 -85 36 -112 68 -16 18 -40 58 -54 88 -25 53 -26 62 -29 284 -3 195 -1 236
13 273 9 24 20 43 24 43 4 0 39 -25 78 -55z m-559 -1840 c26 -94 57 -176 85
-225 11 -19 29 -51 40 -70 l20 -35 -42 40 c-63 60 -155 196 -191 281 -77 185
-91 340 -71 789 18 412 47 688 103 975 l23 115 5 -895 c5 -887 6 -896 28 -975z
m1966 1819 c24 -23 19 -60 -10 -83 -26 -21 -36 -21 -511 -21 -405 0 -489 2
-512 15 -35 18 -45 52 -25 82 l14 23 515 0 c454 0 515 -2 529 -16z m1734 4
c16 -16 15 -73 0 -86 -8 -6 -199 -13 -518 -17 l-505 -7 -27 22 c-32 24 -35 46
-12 78 l15 22 518 0 c389 0 520 -3 529 -12z m991 -243 c62 -416 81 -671 81
-1055 0 -321 -15 -409 -96 -571 -49 -99 -204 -297 -204 -261 0 6 5 14 11 18
21 13 98 189 120 274 23 88 27 263 39 1620 2 271 6 268 49 -25z m-2319 183
c41 -21 51 -34 113 -152 102 -195 164 -263 275 -308 54 -21 75 -22 344 -26
158 -2 322 1 365 6 107 13 187 45 234 94 l39 40 0 -55 c0 -156 -52 -259 -199
-398 -58 -54 -113 -99 -124 -99 -10 0 -29 -11 -42 -25 l-25 -24 0 -252 c0
-219 -2 -250 -15 -239 -8 6 -17 22 -21 33 -14 44 -93 154 -155 214 -137 131
-301 203 -466 203 -60 0 -77 4 -93 20 -27 27 -25 39 14 80 50 51 52 115 7 161
-45 44 -72 39 -134 -27 -69 -75 -97 -88 -182 -88 -85 0 -138 24 -185 85 -39
48 -65 60 -103 47 -38 -14 -57 -45 -57 -94 0 -35 5 -47 33 -70 19 -16 42 -34
52 -39 16 -10 17 -14 4 -40 -14 -30 -15 -30 -125 -36 -208 -13 -335 -70 -484
-219 -79 -78 -103 -110 -137 -180 l-41 -85 -4 264 -3 263 -31 26 c-18 15 -51
38 -75 52 -24 14 -75 57 -114 95 -106 104 -159 225 -178 403 -6 49 2 53 26 13
9 -16 38 -43 64 -60 90 -60 112 -62 520 -59 368 3 368 3 418 28 85 41 142 110
223 268 50 97 83 149 105 166 55 41 96 45 157 14z m-570 -198 c11 -11 20 -29
20 -40 0 -11 -9 -29 -20 -40 -19 -19 -33 -20 -322 -20 -296 0 -302 0 -325 22
-29 27 -29 51 -1 78 21 19 34 20 325 20 290 0 304 -1 323 -20z m1664 -2 c21
-29 20 -57 -1 -80 -15 -17 -38 -18 -326 -18 -341 0 -347 1 -347 61 0 59 1 59
345 59 313 0 314 0 329 -22z m43 -1190 c-1 -62 -3 -12 -3 112 0 124 2 174 3
113 2 -62 2 -164 0 -225z m-670 -69 c27 -13 53 -37 72 -66 35 -53 37 -60 16
-60 -8 0 -15 7 -15 15 0 9 -3 12 -7 9 -3 -4 -18 3 -32 15 l-25 23 17 -25 c28
-41 47 -87 47 -118 0 -90 -80 -201 -184 -254 -53 -28 -74 -32 -159 -36 -68 -3
-102 -1 -112 8 -24 20 -21 166 5 205 23 35 27 107 6 124 -9 8 -64 11 -172 9
l-159 -3 -13 -28 c-11 -23 -11 -34 -2 -58 7 -16 20 -33 28 -38 13 -7 16 -28
17 -105 0 -129 -4 -133 -120 -118 -49 7 -111 22 -140 36 -65 30 -140 96 -168
151 -29 55 -29 137 0 192 12 22 19 43 16 47 -3 3 -19 2 -37 -1 l-31 -6 25 27
c13 15 40 37 60 49 32 20 51 22 255 27 121 3 344 4 495 2 249 -3 279 -6 317
-23z m-1094 -94 c-3 -9 -8 -14 -10 -11 -3 3 -2 9 2 15 9 16 15 13 8 -4z m1764
-62 c-2 -16 -4 -5 -4 22 0 28 2 40 4 28 2 -13 2 -35 0 -50z m-2961 -1224 c31
-30 35 -39 32 -79 l-3 -45 -220 -97 c-121 -53 -266 -115 -323 -138 -101 -41
-102 -41 -137 -24 -46 22 -65 50 -65 96 0 71 1 71 460 269 162 70 200 73 256
18z m3650 27 c22 -7 148 -62 282 -121 263 -117 292 -137 292 -202 0 -25 -8
-43 -29 -64 -49 -48 -96 -42 -270 38 -80 36 -206 92 -280 125 -74 32 -143 65
-153 75 -41 37 -9 120 56 149 40 17 55 17 102 0z m-2541 -135 l137 -134 6
-140 c3 -97 2 -139 -6 -136 -5 2 -74 66 -151 142 l-141 138 0 135 c0 79 4 134
9 132 5 -1 71 -63 146 -137z m1453 7 l0 -133 -144 -139 -144 -140 0 142 0 141
98 94 c124 120 175 166 184 167 3 0 6 -60 6 -132z m-1965 -487 c264 -245 355
-340 338 -350 -20 -13 -84 -2 -98 17 -11 13 -13 13 -14 1 -1 -8 -1 -19 0 -25
1 -6 -11 -9 -29 -6 -17 2 -27 9 -23 15 3 6 1 7 -5 3 -17 -10 -15 -24 6 -29 10
-3 6 -5 -11 -6 -17 -1 -26 3 -22 9 8 13 -5 13 -25 0 -10 -6 -11 -10 -2 -10 6
0 12 -5 12 -12 0 -6 -8 -3 -20 7 -11 10 -17 22 -13 28 3 5 2 8 -3 4 -5 -3 -82
65 -172 151 l-162 157 0 82 c0 96 11 133 40 133 12 0 91 -66 203 -169z m2545
53 l3 -111 -180 -172 c-176 -168 -180 -172 -203 -157 -25 16 -142 20 -132 4 3
-4 0 -8 -5 -8 -6 0 -11 6 -11 13 0 6 -7 20 -14 29 -12 17 -14 17 -32 0 -11 -9
-28 -23 -39 -31 -26 -18 59 65 338 332 175 168 233 218 250 215 21 -3 22 -8
25 -114z m-551 -426 c-3 -8 -6 -5 -6 6 -1 11 2 17 5 13 3 -3 4 -12 1 -19z m68
-18 c3 -5 1 -10 -4 -10 -6 0 -11 5 -11 10 0 6 2 10 4 10 3 0 8 -4 11 -10z m35
6 c0 -3 -4 -8 -10 -11 -5 -3 -10 -1 -10 4 0 6 5 11 10 11 6 0 10 -2 10 -4z
m73 -29 c-5 -8 -8 -8 -10 0 -3 7 -11 9 -19 6 -10 -4 -12 0 -8 11 5 12 10 13
25 5 11 -6 16 -15 12 -22z m-263 9 c0 -2 -8 -10 -17 -17 -16 -13 -17 -12 -4 4
13 16 21 21 21 13z"/>
<path d="M2879 7253 c-13 -16 -12 -17 4 -4 16 13 21 21 13 21 -2 0 -10 -8 -17
-17z"/>
<path d="M2796 7123 c-6 -14 -5 -15 5 -6 7 7 10 15 7 18 -3 3 -9 -2 -12 -12z"/>
<path d="M3206 7118 c3 -5 10 -6 15 -3 13 9 11 12 -6 12 -8 0 -12 -4 -9 -9z"/>
<path d="M3171 7090 c-13 -11 -19 -20 -14 -20 6 0 18 9 28 20 23 25 17 25 -14
0z"/>
<path d="M3071 7044 c0 -11 3 -14 6 -6 3 7 2 16 -1 19 -3 4 -6 -2 -5 -13z"/>
<path d="M3113 7043 c0 -9 4 -10 14 -2 7 6 13 12 13 14 0 1 -6 2 -13 2 -8 0
-14 -6 -14 -14z"/>
<path d="M5910 7036 c0 -2 8 -10 18 -17 15 -13 16 -12 3 4 -13 16 -21 21 -21
13z"/>
<path d="M3080 7020 c-9 -6 -10 -10 -3 -10 6 0 15 5 18 10 8 12 4 12 -15 0z"/>
<path d="M2977 6993 c-10 -10 -8 -23 4 -23 5 0 8 4 5 9 -4 5 0 12 6 14 7 3 8
6 2 6 -6 1 -14 -2 -17 -6z"/>
<path d="M3050 6985 c-7 -8 -16 -12 -21 -9 -5 3 -9 0 -9 -5 0 -17 15 -13 35 9
10 11 16 20 13 20 -3 0 -11 -7 -18 -15z"/>
<path d="M2706 6943 c-6 -14 -5 -15 5 -6 7 7 10 15 7 18 -3 3 -9 -2 -12 -12z"/>
<path d="M2860 6886 c7 -7 13 -7 20 0 6 6 3 10 -10 10 -13 0 -16 -4 -10 -10z"/>
<path d="M4600 3766 c0 -2 8 -10 18 -17 15 -13 16 -12 3 4 -13 16 -21 21 -21
13z"/>
<path d="M4103 3733 c15 -2 37 -2 50 0 12 2 0 4 -28 4 -27 0 -38 -2 -22 -4z"/>
<path d="M3925 3700 c-3 -5 -2 -10 4 -10 5 0 13 5 16 10 3 6 2 10 -4 10 -5 0
-13 -4 -16 -10z"/>
<path d="M5380 1440 c8 -5 20 -10 25 -10 6 0 3 5 -5 10 -8 5 -19 10 -25 10 -5
0 -3 -5 5 -10z"/>
</g>
</svg>
